 <svg id="icon" xmlns="http://www.w3.org/2000/svg" viewBox="0 0 24 24" >
<path fill="currentColor"  fill-rule="evenodd" clip-rule="evenodd" d="M6 18.4341C6 18.5296 6.004 18.6251 6.01286 18.7198C4.16415 17.0715 3 14.6717 3 12C3 7.02944 7.02944 3 12 3C16.9706 3 21 7.02944 21 12C21 14.6722 19.8354 17.0724 17.9861 18.7208C17.9959 18.626 18 18.5299 18 18.4341V15.6667C18 14.2902 17.0614 13.1573 15.8565 13.015C14.8365 13.9379 13.4839 14.5 12 14.5C10.5161 14.5 9.16354 13.9379 8.14353 13.015C6.93864 13.1573 6 14.2902 6 15.6667V18.4341ZM12 23C18.0751 23 23 18.0751 23 12C23 5.92487 18.0751 1 12 1C5.92487 1 1 5.92487 1 12C1 18.0751 5.92487 23 12 23ZM12 12.5C14.0711 12.5 15.75 10.8211 15.75 8.75C15.75 6.67893 14.0711 5 12 5C9.92893 5 8.25 6.67893 8.25 8.75C8.25 10.8211 9.92893 12.5 12 12.5Z"/>
</svg>